Coordinates
version=1
nRows=5
nColumns=40
inDegrees=yes

Units are S.I. units (second, meters, Newtons, ...)
Angles are in degrees.

endheader
time	pelvis_tilt	pelvis_list	pelvis_rotation	pelvis_tx	pelvis_ty	pelvis_tz	hip_flexion_r	hip_adduction_r	hip_rotation_r	knee_angle_r	knee_angle_r_beta	ankle_angle_r	subtalar_angle_r	mtp_angle_r	hip_flexion_l	hip_adduction_l	hip_rotation_l	knee_angle_l	knee_angle_l_beta	ankle_angle_l	subtalar_angle_l	mtp_angle_l	lumbar_extension	lumbar_bending	lumbar_rotation	arm_flex_r	arm_add_r	arm_rot_r	elbow_flex_r	pro_sup_r	wrist_flex_r	wrist_dev_r	arm_flex_l	arm_add_l	arm_rot_l	elbow_flex_l	pro_sup_l	wrist_flex_l	wrist_dev_l
     48.77000000	     -4.78544162	     -5.56523402	     -2.05941807	      0.99976434	      0.92183573	      0.47090669	     22.38431363	      3.57917050	     -9.04362779	     21.75091051	     21.75091051	      6.07120337	     -2.65529588	      0.07812278	      1.58702039	    -10.17447826	     -8.71203881	     32.60631741	     32.60631741	     13.53582275	    -10.74563571	    -13.11103552	     -9.05941868	      7.16104908	     -0.94479326	     -7.02908828	    -12.07751371	     -6.33682079	     35.75832906	     46.02245653	      0.00000000	      0.00000000	     11.04288170	    -11.75665576	     -9.09438497	     65.08908729	     47.49920692	      0.00000000	      0.00000000
     48.78342857	     -4.75147168	     -5.61386339	     -1.83372638	      1.00094518	      0.92224037	      0.47372409	     21.84995859	      3.71888612	     -9.34597852	     21.88132743	     21.88132743	      6.64018703	     -2.49372450	     -0.11447596	      3.07927294	    -10.73912876	     -7.85134239	     36.05753799	     36.05753799	     11.79234431	    -12.08547974	    -13.80684532	     -9.01579948	      7.06941064	     -1.39353451	     -5.57405437	    -12.04391452	     -6.30457365	     37.29261201	     45.96704013	      0.00000000	      0.00000000	      9.96987355	    -11.55884706	     -8.94855477	     62.74510598	     47.44328959	      0.00000000	      0.00000000
     48.79685714	     -4.75345370	     -5.60933372	     -1.53590834	      1.00180682	      0.92253435	      0.47629233	     21.36304203	      3.75999010	     -9.73590263	     22.00015226	     22.00015226	      7.24312545	     -2.22048165	     -0.30041601	      4.79977757	    -11.17621951	     -6.80168171	     39.63809634	     39.63809634	      9.64620102	    -13.67049644	    -14.43086381	     -8.96636278	      6.94232588	     -1.75071286	     -4.26335971	    -12.05278695	     -6.22534124	     39.21421646	     45.89284370	      0.00000000	      0.00000000	      9.10936518	    -11.28737181	     -8.81987444	     59.82226577	     47.38203917	      0.00000000	      0.00000000
     48.81028571	     -4.63476819	     -5.57344799	     -1.28185495	      1.00243265	      0.92290306	      0.47874042	     20.81272966	      3.71849582	    -10.23238401	     22.24769149	     22.24769149	      7.96833018	     -1.57752690	     -0.14189567	      6.45598841	    -11.48444364	     -5.67211239	     43.16066957	     43.16066957	      6.89981375	    -15.67951021	    -15.64381574	     -9.04119640	      6.81931304	     -0.60931322	     -4.83883323	    -12.68958614	     -5.52065718	     44.49527299	     45.63992124	      0.00000000	      0.00000000	     10.67126598	    -10.11419658	     -8.51077906	     52.94172298	     47.25898175	      0.00000000	      0.00000000
     48.82371429	     -4.57792697	     -5.57260268	     -0.91413738	      1.00266967	      0.92306202	      0.48102024	     20.33198443	      3.72559482	    -10.69035484	     22.44246746	     22.44246746	      8.56388503	     -1.30342467	     -0.26028729	      8.51164581	    -11.80842706	     -4.43217506	     47.09349792	     47.09349792	      5.15930295	    -16.60326546	    -14.37875929	     -9.12507942	      6.68127048	     -1.02938318	     -3.32768602	    -12.70304023	     -5.75481553	     46.78014305	     45.57410537	      0.00000000	      0.00000000	      9.83932435	    -10.06640255	     -8.03134455	     50.14815737	     47.16681995	      0.00000000	      0.00000000
